<?xml version="1.0" encoding="UTF-8" standalone="no"?>
<svg
   xmlns:dc="http://purl.org/dc/elements/1.1/"
   xmlns:cc="http://creativecommons.org/ns#"
   xmlns:rdf="http://www.w3.org/1999/02/22-rdf-syntax-ns#"
   xmlns:svg="http://www.w3.org/2000/svg"
   xmlns="http://www.w3.org/2000/svg"
   viewBox="0 0 390.66666 390.66666"
   height="390.66666"
   width="390.66666"
   xml:space="preserve"
   id="svg3732"
   version="1.1"><metadata
     id="metadata3738"><rdf:RDF><cc:Work
         rdf:about=""><dc:format>image/svg+xml</dc:format><dc:type
           rdf:resource="http://purl.org/dc/dcmitype/StillImage" /><dc:title></dc:title></cc:Work></rdf:RDF></metadata><defs
     id="defs3736" /><g
     transform="matrix(1.3333333,0,0,-1.3333333,0,390.66667)"
     id="g3740"><g
       transform="scale(0.1)"
       id="g3742"><path
         id="path3744"
         style="fill:#b1b1b0;fill-opacity:1;fill-rule:nonzero;stroke:none;opacity:0"
         d="M 2930,0 H 0 V 2930 H 2930 V 0" /><path
         id="path3746"
         style="fill:#100f0d;fill-opacity:1;fill-rule:nonzero;stroke:none"
         d="m 1142.83,1749.14 c -0.01,-0.01 -0.01,-0.03 -0.02,-0.04 0.01,0.01 0.01,0.03 0.02,0.04 z m -1.7,-4.83 c -9.63,-27.36 -18.9,-54.27 -27.05,-81.83 -9.85,-33.27 -29.22,-59.05 -60.95,-81.13 -40.96,-28.49 -70.138,-67.48 -86.724,-115.87 -24.644,-71.93 -50.16,-144.86 -74.84,-215.39 -16.98,-48.55 -33.968,-97.08 -50.808,-145.69 -7.043,-20.32 -14.238,-40.59 -21.442,-60.87 -22.769,-64.151 -46.32,-130.471 -64.148,-197.018 -8.414,-31.383 -7.605,-33.321 21.766,-51.59 50.531,-31.442 106.597,-49.711 154.777,-63.434 l 5.559,-1.578 c 32.332,-9.23 62.87,-17.949 94.63,-19.961 21.79,-1.367 24.61,0.313 33.51,19.992 22.79,50.411 41.2,103.981 59,155.789 l 5.24,15.231 c 16.92,49.09 33.92,99.099 50.35,147.459 31.88,93.81 64.85,190.81 98.83,285.75 23.49,65.62 25.86,122.19 7.44,178.03 -8.82,26.75 -7.87,53.59 2.91,82.07 13.34,35.26 26.03,71.57 38.29,106.7 3.93,11.25 7.85,22.49 11.81,33.72 0.41,1.17 0.85,2.34 1.29,3.51 0.77,2.06 1.94,5.18 1.98,6.25 l -0.06,3.35 1.02,3.16 c 6.67,20.85 7.8,24.88 7.99,25.63 19.33,79.2 31.13,144.96 37.12,206.95 l 0.38,4.05 c 1.63,17.72 3.65,39.78 20.47,56.63 10.9,10.92 12.6,16.99 9.03,34.6 -2.15,6.07 -2.15,12.51 -0.26,18.16 -33.33,16.79 -66.73,28.62 -101.21,35.85 -1.9,-7.35 -7.16,-12.23 -9.57,-14.47 -0.28,-0.27 -0.57,-0.52 -0.82,-0.78 -9.33,-9.92 -12.58,-19.44 -10.84,-31.78 2.09,-14.82 -1.64,-30.42 -10.79,-45.14 l -1.44,-2.3 c -18.64,-29.98 -37.92,-60.98 -54.36,-92.53 -22.5,-43.16 -69.47,-149.37 -84.92,-194.8 l -1.96,-5.79 z M 1039.06,669.07 c -3.1,0 -6.33,0.11 -9.72,0.321 -36.137,2.289 -70.242,12.031 -103.227,21.437 l -5.539,1.582 c -50.89,14.488 -110.304,33.91 -165.109,68.012 -44.559,27.719 -52.692,47.59 -39.559,96.609 18.258,68.11 42.078,135.207 65.114,200.099 7.164,20.17 14.332,40.35 21.339,60.58 16.856,48.64 33.852,97.22 50.848,145.81 24.66,70.46 50.152,143.34 74.758,215.13 19.441,56.75 53.75,102.52 101.955,136.06 24.07,16.75 38.01,35.04 45.19,59.3 8.9,30.1 18.98,59.09 29.38,88.61 0.65,1.83 1.52,3.56 2.6,5.17 18.41,52.63 65.27,156.9 86.08,196.82 17.16,32.91 36.85,64.59 55.9,95.21 l 1.43,2.31 c 2.83,4.54 6,11.35 5.06,17.99 -3.09,21.9 2.37,41.8 16.23,59.24 -2.26,8.89 0.08,18.48 6.64,26.47 6.9,8.4 16.15,12.36 24.98,10.79 51.7,-8.11 102.75,-26.01 151.74,-53.21 l 5.19,-2.88 2.82,-5.22 c 8.77,-16.22 4.55,-29.54 -3.26,-37.72 2.99,-22.25 -0.9,-41.26 -21.67,-62.08 -6.46,-6.46 -7.53,-18.13 -8.76,-31.63 l -0.4,-4.25 c -6.18,-63.97 -18.29,-131.55 -38.1,-212.7 -0.31,-1.28 -0.95,-3.9 -7.91,-25.73 -0.56,-6.9 -2.76,-12.78 -4.44,-17.26 -0.34,-0.92 -0.69,-1.83 -1.01,-2.74 -3.94,-11.2 -7.85,-22.41 -11.77,-33.63 -12.35,-35.36 -25.12,-71.94 -38.65,-107.68 -7.45,-19.7 -8.19,-37.17 -2.32,-54.96 21.1,-64 18.56,-130.88 -7.78,-204.46 -33.87,-94.63 -66.78,-191.47 -98.61,-285.13 -16.45,-48.399 -33.46,-98.449 -50.4,-147.629 l -5.23,-15.191 c -18.11,-52.7 -36.84,-107.18 -60.41,-159.329 -14.52,-32.109 -31.15,-44.121 -63.38,-44.121" /><path
         id="path3748"
         style="fill:#ffffff;fill-opacity:1;fill-rule:nonzero;stroke:none"
         d="m 1345.83,1692.11 c 0,0 -152.29,34.34 -221.83,62.32 15.32,46.59 64.68,157.59 87.19,200.79 17.22,33.03 36.92,64.58 56.56,96.17 6.07,9.77 9.47,20.64 7.93,31.56 -2.73,19.35 3.28,34.85 16.2,48.59 3.36,3.58 10.48,7.71 0.04,11.6 -2.92,6.39 5.25,14.12 8.02,13.46 51.8,-8.09 99.99,-25.78 145.35,-50.95 3.77,-6.98 2.94,-11.86 -1.35,-15.18 -5.78,5.92 -8.19,-1.07 -5.91,-5.76 4.9,-23.1 3.46,-37.17 -14.18,-54.84 -12.65,-12.68 -13.34,-31.1 -15.01,-48.29 -6.86,-70.96 -20.73,-140.68 -37.6,-209.83 -1.77,-7.23 -25.41,-79.64 -25.41,-79.64" /><path
         id="path3750"
         style="fill:#b1b1b0;fill-opacity:1;fill-rule:nonzero;stroke:none"
         d="m 1172.66,1072.06 c 7.76,0.94 10.72,6.16 13.35,12.95 18.23,47.04 32.84,95.29 47.76,143.4 10,32.24 17.76,65.19 26.22,97.9 2.49,9.62 4.65,18.64 -9.02,23.62 -86.63,31.54 -173.1,63.52 -260.673,92.42 -13.66,4.51 -20.039,0.1 -25.609,-12.04 -35.172,-76.6 -64.938,-155.29 -92.137,-235.01 -2.18,-6.37 -4.996,-12.79 0.031,-19.17 -8.574,-0.49 -8.41,-7.95 -10.187,-13.37 -27.161,-83.08 -52.168,-166.799 -74.336,-251.369 -2.649,-10.11 -1.414,-15.352 8.293,-20.5 23.941,-12.711 48.421,-24.161 73.293,-34.832 60.726,-26.028 123.515,-45.207 188.535,-57.309 12.24,-2.281 17.42,1.332 21.75,12.59 9.27,24.09 20.79,47.308 30.27,71.34 22.82,57.82 45.04,115.859 67.34,173.87 2.32,6.05 6.48,13.43 -4.88,15.51 z m 188.96,679.02 c 3.29,-8.3 -0.57,-15.72 -3.17,-23.14 -16.56,-47.02 -32.62,-94.24 -50.26,-140.86 -8.72,-23.03 -10.2,-45.53 -2.62,-68.52 21.36,-64.78 15.29,-127.28 -7.61,-191.25 -51.44,-143.7 -99.36,-288.66 -149.09,-432.97 -20.06,-58.18 -39.55,-116.602 -64.94,-172.77 -12.34,-27.281 -23.16,-33.8 -53.31,-31.89 -35.886,2.261 -70.155,12.5 -104.475,22.269 -55.778,15.883 -110.29,34.821 -159.946,65.723 -36.289,22.566 -41.656,33.066 -30.664,74.098 23.61,88.082 56.203,173.24 86.024,259.29 41.722,120.39 84.324,240.47 125.629,361.01 17.992,52.51 49.273,94.61 94.332,125.96 25.83,17.97 43.94,39.37 53.07,70.22 8.73,29.48 18.83,58.57 29.07,87.61 5.11,14.52 165.92,15.83 237.96,-4.78" /><path
         id="path3752"
         style="fill:#c2202b;fill-opacity:1;fill-rule:nonzero;stroke:none"
         d="m 1250.92,1349.77 c -86.6,31.64 -173.03,63.74 -260.631,92.54 -13.672,4.51 -20.191,-0.33 -26.074,-13.35 -37.129,-82.26 -68.863,-166.63 -98.027,-252.02 -1.266,-3.7 -55.961,-180.979 -78.129,-265.549 -2.649,-10.11 -1.414,-15.352 8.293,-20.5 23.941,-12.711 48.421,-24.161 73.293,-34.832 60.726,-26.028 123.515,-45.207 188.535,-57.309 12.24,-2.281 17.42,1.332 21.75,12.59 9.28,24.09 20.79,47.308 30.27,71.34 22.82,57.82 45.04,115.859 67.34,173.87 1.39,3.63 37.36,112.38 53.36,163.59 10.78,34.51 19.33,69.72 28.58,104.7 2.72,10.28 5.1,19.93 -8.56,24.93" /><path
         id="path3754"
         style="fill:#7a7b7c;fill-opacity:1;fill-rule:nonzero;stroke:none"
         d="m 1248.99,1727.07 c -43.28,0 -83.53,5.66 -120.37,16.97 -0.97,0.3 -1.52,1.33 -1.22,2.31 0.3,0.97 1.32,1.51 2.31,1.22 63.85,-19.6 138.14,-22.07 220.79,-7.34 1.01,0.19 1.97,-0.48 2.15,-1.49 0.18,-1.01 -0.49,-1.96 -1.5,-2.14 -35.64,-6.36 -69.75,-9.53 -102.16,-9.53" /><path
         id="path3756"
         style="fill:#100f0d;fill-opacity:1;fill-rule:nonzero;stroke:none"
         d="m 1378.54,2028.42 c -0.27,0 -0.55,0.03 -0.83,0.1 -34.6,7.91 -60.28,16.48 -78.5,26.2 -1.8,0.96 -2.48,3.19 -1.51,5 0.95,1.8 3.2,2.48 4.99,1.51 17.63,-9.4 42.71,-17.75 76.67,-25.51 1.99,-0.45 3.23,-2.44 2.78,-4.43 -0.39,-1.7 -1.92,-2.87 -3.6,-2.87" /><path
         id="path3758"
         style="fill:#100f0d;fill-opacity:1;fill-rule:nonzero;stroke:none"
         d="m 1422.87,2091.23 c -0.58,0 -1.15,0.13 -1.69,0.41 -36.42,18.77 -73.32,31.07 -109.7,36.57 -2.01,0.31 -3.4,2.19 -3.1,4.21 0.31,2.02 2.2,3.42 4.21,3.1 37.17,-5.62 74.84,-18.17 111.97,-37.31 1.81,-0.94 2.53,-3.17 1.59,-4.98 -0.65,-1.27 -1.95,-2 -3.28,-2" /><path
         id="path3760"
         style="fill:#ffffff;fill-opacity:1;fill-rule:nonzero;stroke:none"
         d="m 1103.34,1250.56 c 2.42,1.15 5.17,1.18 8.25,0.09 3.24,-1.15 5.54,-3.15 6.91,-6 l 25.13,-52.7 c 0.73,-1.53 1.12,-3.03 1.14,-4.5 0.02,-1.47 -0.02,-2.92 -0.16,-4.33 -0.73,-1.02 -1.52,-2.1 -2.39,-3.26 -0.86,-1.15 -2.01,-2.2 -3.44,-3.15 l -107.86,-51.87 51.2,-108.17 c 1.13,-3.51 1.3,-6.4 0.5,-8.66 -1.1,-3.09 -3.4,-5.46 -6.91,-7.13 l -53.66,-24.798 c -2.76,-1.594 -5.43,-1.91 -8.02,-0.992 -2.76,0.969 -4.87,3 -6.33,6.07 l -82.001,172.73 c -1.574,3.29 -1.953,6.06 -1.148,8.34 0.914,2.59 3.023,4.67 6.312,6.25 l 172.477,82.08" /><path
         id="path3762"
         style="fill:none;stroke:#c2202b;stroke-width:18.00309944;stroke-linecap:butt;stroke-linejoin:miter;stroke-miterlimit:10;stroke-dasharray:none;stroke-opacity:1"
         d="m 1103.34,1250.56 c 2.42,1.15 5.17,1.18 8.25,0.09 3.24,-1.15 5.54,-3.15 6.91,-6 l 25.13,-52.7 c 0.73,-1.53 1.12,-3.03 1.14,-4.5 0.02,-1.47 -0.02,-2.92 -0.16,-4.33 -0.73,-1.02 -1.52,-2.1 -2.39,-3.26 -0.86,-1.15 -2.01,-2.2 -3.44,-3.15 l -107.86,-51.87 51.2,-108.17 c 1.13,-3.51 1.3,-6.4 0.5,-8.66 -1.1,-3.09 -3.4,-5.46 -6.91,-7.13 l -53.66,-24.798 c -2.76,-1.594 -5.43,-1.91 -8.02,-0.992 -2.76,0.969 -4.87,3 -6.33,6.07 l -82.001,172.73 c -1.574,3.29 -1.953,6.06 -1.148,8.34 0.914,2.59 3.023,4.67 6.312,6.25 z" /><path
         id="path3764"
         style="fill:#100f0d;fill-opacity:1;fill-rule:nonzero;stroke:none"
         d="m 1770.51,1749.11 c 0,-0.01 0.01,-0.03 0.01,-0.04 0,0.01 -0.01,0.03 -0.01,0.04 z m -275.69,329.71 c -3.57,-17.61 -1.87,-23.68 9.04,-34.6 16.82,-16.85 18.85,-38.91 20.47,-56.63 l 0.38,-4.05 c 5.99,-61.99 17.79,-127.75 37.12,-206.98 0.18,-0.72 1.31,-4.75 7.98,-25.6 l 1.02,-3.2 -0.06,-3.35 c 0.05,-1.03 1.21,-4.15 1.99,-6.21 0.44,-1.17 0.87,-2.34 1.28,-3.51 3.96,-11.23 7.88,-22.47 11.81,-33.72 12.27,-35.13 24.95,-71.44 38.29,-106.7 10.78,-28.48 11.73,-55.33 2.91,-82.07 -18.41,-55.84 -16.04,-112.41 7.44,-178.03 33.99,-94.94 66.96,-191.94 98.83,-285.75 16.44,-48.36 33.43,-98.369 50.35,-147.451 l 5.24,-15.239 c 17.81,-51.808 36.22,-105.378 59,-155.789 8.9,-19.679 11.71,-21.359 33.52,-19.992 31.75,2.012 62.29,10.731 94.62,19.961 l 5.57,1.578 c 48.17,13.723 104.24,31.992 154.77,63.434 29.37,18.269 30.18,20.207 21.77,51.59 -17.84,66.547 -41.38,132.867 -64.16,197.018 -7.19,20.28 -14.39,40.55 -21.43,60.87 -16.85,48.61 -33.83,97.14 -50.81,145.69 -24.68,70.53 -50.2,143.46 -74.85,215.39 -16.58,48.39 -45.76,87.38 -86.7,115.87 -31.75,22.08 -51.12,47.86 -60.96,81.13 -8.16,27.57 -17.43,54.49 -27.05,81.83 l -1.2,0.93 -1.97,5.79 c -15.44,45.43 -62.42,151.64 -84.92,194.8 -16.45,31.58 -35.76,62.63 -54.43,92.65 l -1.36,2.18 c -9.15,14.72 -12.88,30.32 -10.79,45.14 1.74,12.34 -1.51,21.86 -10.88,31.82 -0.21,0.22 -0.5,0.47 -0.78,0.74 -2.42,2.24 -7.68,7.12 -9.58,14.47 -34.48,-7.23 -67.88,-19.06 -101.2,-35.85 1.88,-5.65 1.88,-12.09 -0.27,-18.16 z M 1874.27,669.07 c -32.24,0 -48.87,12.012 -63.38,44.121 -23.58,52.149 -42.31,106.629 -60.41,159.329 l -5.23,15.191 c -16.95,49.18 -33.95,99.219 -50.41,147.629 -31.82,93.65 -64.73,190.5 -98.61,285.13 -26.34,73.58 -28.88,140.46 -7.77,204.46 5.87,17.79 5.12,35.26 -2.33,54.96 -13.52,35.74 -26.3,72.32 -38.64,107.68 -3.92,11.22 -7.83,22.43 -11.78,33.63 -0.32,0.91 -0.66,1.82 -1,2.74 -1.68,4.48 -3.89,10.36 -4.45,17.26 -6.96,21.83 -7.59,24.45 -7.91,25.74 -19.8,81.14 -31.91,148.72 -38.09,212.69 l -0.4,4.25 c -1.24,13.5 -2.31,25.17 -8.76,31.63 -20.78,20.82 -24.66,39.83 -21.68,62.08 -7.8,8.18 -12.03,21.5 -3.25,37.72 l 2.82,5.22 5.19,2.88 c 48.99,27.2 100.03,45.1 151.73,53.21 8.84,1.57 18.09,-2.4 24.98,-10.79 6.57,-7.99 8.9,-17.58 6.64,-26.47 13.86,-17.44 19.32,-37.33 16.23,-59.24 -0.93,-6.64 2.24,-13.45 5.07,-17.99 l 1.36,-2.19 c 19.06,-30.67 38.79,-62.38 55.97,-95.33 20.8,-39.92 67.66,-144.2 86.07,-196.82 1.09,-1.62 1.96,-3.35 2.62,-5.2 10.39,-29.49 20.46,-58.48 29.36,-88.58 7.18,-24.26 21.13,-42.55 45.2,-59.3 48.2,-33.54 82.51,-79.31 101.95,-136.06 24.6,-71.79 50.1,-144.67 74.76,-215.13 16.99,-48.59 33.99,-97.17 50.85,-145.81 7.01,-20.23 14.17,-40.41 21.33,-60.58 23.04,-64.892 46.86,-131.989 65.11,-200.099 13.15,-49.019 5.01,-68.89 -39.55,-96.609 -54.8,-34.102 -114.22,-53.524 -165.12,-68.012 l -5.53,-1.582 c -32.98,-9.406 -67.08,-19.148 -103.23,-21.437 -3.38,-0.211 -6.62,-0.321 -9.71,-0.321" /><path
         id="path3766"
         style="fill:#ffffff;fill-opacity:1;fill-rule:nonzero;stroke:none"
         d="m 1567.49,1692.11 c 0,0 152.3,34.34 221.84,62.32 -15.33,46.59 -64.68,157.59 -87.19,200.79 -17.22,33.03 -36.93,64.58 -56.57,96.17 -6.07,9.77 -9.47,20.64 -7.92,31.56 2.72,19.35 -3.28,34.85 -16.19,48.59 -3.37,3.58 -10.49,7.71 -0.05,11.6 2.92,6.39 -5.26,14.12 -8.02,13.46 -51.81,-8.09 -99.99,-25.78 -145.35,-50.95 -3.78,-6.98 -2.94,-11.86 1.35,-15.18 5.77,5.92 8.19,-1.07 5.91,-5.76 -4.91,-23.1 -3.47,-37.17 14.17,-54.84 12.66,-12.68 13.35,-31.1 15.01,-48.29 6.86,-70.96 20.73,-140.68 37.61,-209.83 1.77,-7.23 25.4,-79.64 25.4,-79.64" /><path
         id="path3768"
         style="fill:#b1b1b0;fill-opacity:1;fill-rule:nonzero;stroke:none"
         d="m 1735.78,1056.55 c 22.31,-58.011 44.53,-116.05 67.35,-173.87 9.48,-24.032 20.99,-47.25 30.26,-71.34 4.33,-11.258 9.52,-14.871 21.76,-12.59 65.02,12.102 127.81,31.281 188.53,57.309 24.86,10.671 49.35,22.121 73.29,34.832 9.71,5.148 10.94,10.39 8.29,20.5 -22.15,84.57 -47.17,168.289 -74.33,251.369 -1.77,5.42 -1.61,12.88 -10.19,13.37 5.03,6.38 2.21,12.8 0.03,19.17 -27.2,79.72 -56.96,158.41 -92.14,235.01 -5.56,12.14 -11.94,16.55 -25.6,12.04 -87.58,-28.9 -174.05,-60.88 -260.68,-92.42 -13.67,-4.98 -11.5,-14 -9.01,-23.62 8.46,-32.71 16.22,-65.66 26.21,-97.9 14.92,-48.11 29.53,-96.36 47.76,-143.4 2.63,-6.79 5.6,-12.01 13.35,-12.95 -11.36,-2.08 -7.19,-9.46 -4.88,-15.51 z m 53.89,699.31 c 10.23,-29.04 20.33,-58.13 29.06,-87.61 9.13,-30.85 27.25,-52.25 53.08,-70.22 45.06,-31.35 76.33,-73.45 94.33,-125.96 41.3,-120.54 83.9,-240.62 125.63,-361.01 29.81,-86.05 62.41,-171.208 86.01,-259.29 11,-41.032 5.64,-51.532 -30.65,-74.098 -49.66,-30.902 -104.17,-49.84 -159.95,-65.723 -34.32,-9.769 -68.59,-20.008 -104.47,-22.269 -30.15,-1.91 -40.97,4.609 -53.31,31.89 -25.4,56.168 -44.89,114.59 -64.94,172.77 -49.73,144.31 -97.65,289.27 -149.1,432.97 -22.89,63.97 -28.97,126.47 -7.61,191.25 7.59,22.99 6.1,45.49 -2.61,68.52 -17.64,46.62 -33.7,93.84 -50.26,140.86 -2.61,7.42 -6.46,14.84 -3.17,23.14 72.04,20.61 232.84,19.3 237.96,4.78" /><path
         id="path3770"
         style="fill:#c2202b;fill-opacity:1;fill-rule:nonzero;stroke:none"
         d="m 2125.26,911.391 c -21.68,82.73 -74.25,254.349 -75.7,258.559 -29.91,87.55 -62.39,174.07 -100.27,258.49 -6,13.37 -12.58,18.36 -26.25,13.86 -87.62,-28.77 -174.03,-60.92 -260.61,-92.6 -13.66,-5 -11.2,-14.89 -8.39,-25.42 9.54,-35.84 18.39,-71.92 29.48,-107.3 15.74,-50.21 50.91,-156.92 52.26,-160.43 22.31,-58.011 44.53,-116.05 67.35,-173.87 9.48,-24.032 20.99,-47.25 30.26,-71.34 4.33,-11.258 9.51,-14.871 21.76,-12.59 65.02,12.102 127.81,31.281 188.53,57.309 24.86,10.671 49.35,22.121 73.29,34.832 9.71,5.148 10.94,10.39 8.29,20.5" /><path
         id="path3772"
         style="fill:#7a7b7c;fill-opacity:1;fill-rule:nonzero;stroke:none"
         d="m 1664.33,1727.07 c -32.41,0 -66.52,3.17 -102.16,9.53 -1.01,0.18 -1.67,1.13 -1.5,2.14 0.19,1 1.15,1.68 2.15,1.49 82.65,-14.73 156.94,-12.26 220.79,7.34 0.98,0.3 2.02,-0.25 2.32,-1.22 0.29,-0.98 -0.26,-2.01 -1.23,-2.31 -36.84,-11.31 -77.09,-16.97 -120.37,-16.97" /><path
         id="path3774"
         style="fill:#100f0d;fill-opacity:1;fill-rule:nonzero;stroke:none"
         d="m 1534.79,2028.42 c -1.69,0 -3.21,1.17 -3.61,2.87 -0.45,1.99 0.79,3.98 2.78,4.43 33.96,7.76 59.05,16.11 76.67,25.51 1.8,0.97 4.04,0.29 5,-1.51 0.96,-1.81 0.28,-4.04 -1.52,-5 -18.21,-9.72 -43.9,-18.29 -78.49,-26.2 -0.29,-0.07 -0.56,-0.1 -0.83,-0.1" /><path
         id="path3776"
         style="fill:#100f0d;fill-opacity:1;fill-rule:nonzero;stroke:none"
         d="m 1490.46,2091.23 c -1.34,0 -2.63,0.73 -3.28,2 -0.94,1.81 -0.23,4.04 1.59,4.98 37.13,19.14 74.79,31.69 111.96,37.31 2.03,0.3 3.91,-1.09 4.21,-3.1 0.3,-2.02 -1.08,-3.9 -3.1,-4.21 -36.37,-5.5 -73.28,-17.8 -109.69,-36.57 -0.54,-0.28 -1.11,-0.41 -1.69,-0.41" /><path
         id="path3778"
         style="fill:#ffffff;fill-opacity:1;fill-rule:nonzero;stroke:#000600;stroke-opacity:1;stroke-width:18.99750047;stroke-miterlimit:4;stroke-dasharray:none"
         d="m 299.527,1891.04 117.973,-86.31 9.07,12.4 c 1.66,2.27 3.2,4.54 4.637,6.82 1.426,2.28 2.836,4.57 4.215,6.89 4.789,7.83 7.961,16.08 9.523,24.77 1.563,8.68 1.559,17.26 -0.007,25.74 -1.571,8.47 -4.793,16.57 -9.665,24.29 -4.867,7.72 -11.343,14.54 -19.421,20.45 -8.594,6.29 -17.629,10.52 -27.106,12.69 -9.476,2.18 -18.801,2.53 -27.953,1.07 -9.156,-1.47 -17.805,-4.7 -25.938,-9.71 -8.14,-5 -15.164,-11.54 -21.066,-19.61 z m 158.071,91.79 c 10.84,-7.93 20.172,-16.79 27.992,-26.6 7.824,-9.8 14.152,-20.25 18.988,-31.35 4.836,-11.1 8.18,-22.57 10.027,-34.42 1.844,-11.86 2.129,-23.71 0.848,-35.54 -1.277,-11.84 -4.144,-23.53 -8.594,-35.09 -4.453,-11.55 -10.457,-22.5 -18.019,-32.83 l -53.258,-72.81 c -1.301,-1.77 -2.863,-3.05 -4.687,-3.82 -1.829,-0.79 -4.071,-0.2 -6.731,1.74 l -214.309,156.8 c -2.144,1.57 -3.472,3.4 -3.972,5.51 -0.5,2.1 0.074,4.29 1.734,6.56 l 53.262,72.79 c 7.559,10.34 16.184,19.34 25.863,26.99 9.684,7.65 20.016,13.85 31.016,18.57 10.992,4.73 22.437,8.03 34.332,9.91 11.894,1.88 23.867,2.15 35.922,0.81 12.054,-1.34 23.98,-4.25 35.777,-8.72 11.797,-4.47 23.066,-10.64 33.809,-18.5" /><path
         id="path3780"
         style="fill:#ffffff;fill-opacity:1;fill-rule:nonzero;stroke:#000600;stroke-opacity:1;stroke-width:18.99750047;stroke-miterlimit:4;stroke-dasharray:none"
         d="m 594.219,2155.81 c -2.321,3.01 -5.164,5.62 -8.551,7.82 -3.379,2.19 -7,3.8 -10.867,4.82 -3.863,1.03 -7.809,1.35 -11.828,0.98 -4.024,-0.38 -7.871,-1.58 -11.543,-3.61 -2.86,-1.87 -5.535,-3.65 -8.024,-5.32 -2.484,-1.67 -5.125,-3.59 -7.926,-5.74 l -20.019,-15.4 42.523,-55.29 26.688,20.52 c 1.746,1.34 3.25,2.58 4.527,3.72 1.281,1.14 2.66,2.44 4.153,3.91 3.074,3.01 5.324,6.37 6.753,10.12 1.438,3.73 2.125,7.54 2.075,11.41 -0.063,3.88 -0.778,7.71 -2.168,11.53 -1.395,3.8 -3.317,7.31 -5.793,10.53 z m -165.016,-20.43 c -1.621,2.1 -2.383,4.19 -2.285,6.27 0.098,2.08 1.207,3.93 3.336,5.57 l 93.699,72.05 c 9.957,7.66 20.777,12.9 32.453,15.73 11.68,2.82 23.301,3.41 34.879,1.76 11.574,-1.65 22.645,-5.49 33.207,-11.51 10.559,-6.03 19.703,-14.07 27.426,-24.11 5.254,-6.83 9.355,-14.03 12.32,-21.58 2.957,-7.55 4.918,-15.24 5.86,-23.07 0.937,-7.83 0.886,-15.62 -0.153,-23.37 -1.039,-7.75 -2.968,-15.19 -5.797,-22.32 l 93.356,-44.27 c 1.758,-0.89 3.906,-1.88 6.437,-2.96 2.536,-1.09 4.34,-2.34 5.418,-3.75 1.243,-1.61 1.676,-3.23 1.321,-4.86 -0.364,-1.64 -1.41,-3.12 -3.153,-4.46 l -49.75,-38.26 c -1.644,-1.26 -3.5,-1.89 -5.582,-1.89 -2.078,0 -3.968,0.7 -5.668,2.11 l -88.199,41.76 -23.492,-18.07 52.254,-67.95 c 3.324,-4.32 2.758,-8.2 -1.684,-11.61 l -43.082,-33.13 c -1.933,-1.49 -3.886,-2.15 -5.859,-1.99 -1.969,0.17 -3.805,1.35 -5.504,3.56 l -161.758,210.35" /><path
         id="path3782"
         style="fill:#ffffff;fill-opacity:1;fill-rule:nonzero;stroke:#000600;stroke-opacity:1;stroke-width:18.99750047;stroke-miterlimit:4;stroke-dasharray:none"
         d="m 808.398,2193.6 c 3.832,-8.56 8.227,-15.32 13.184,-20.26 4.957,-4.94 10.141,-8.45 15.566,-10.54 5.418,-2.09 11,-2.89 16.743,-2.41 5.742,0.49 11.289,1.93 16.644,4.33 5.582,2.49 10.403,5.87 14.453,10.12 4.059,4.24 7.063,9.2 9.016,14.87 1.949,5.66 2.691,11.93 2.226,18.81 -0.468,6.88 -2.414,14.14 -5.832,21.78 l -65.902,147.25 c -0.933,2.08 -1.043,4.19 -0.32,6.32 0.719,2.13 2.246,3.71 4.586,4.76 l 48.761,21.82 c 2.559,1.15 4.915,1.27 7.063,0.35 2.144,-0.91 3.656,-2.35 4.539,-4.32 l 65.461,-146.25 c 9.059,-20.25 13.797,-38.53 14.223,-54.86 0.429,-16.33 -2.325,-30.86 -8.258,-43.58 -5.934,-12.72 -14.461,-23.75 -25.574,-33.1 -11.122,-9.35 -23.692,-17.16 -37.719,-23.44 -14.031,-6.28 -28.293,-10.41 -42.778,-12.38 -14.48,-1.97 -28.468,-0.87 -41.96,3.29 -13.493,4.17 -26.172,11.82 -38.043,22.96 -11.872,11.14 -22.254,26.66 -31.157,46.56 l -65.461,146.25 c -0.879,1.96 -1.035,4.02 -0.453,6.15 0.578,2.13 1.809,3.62 3.703,4.46 l 49.969,22.37 c 1.664,0.75 3.735,0.81 6.223,0.18 2.472,-0.63 4.207,-2.04 5.195,-4.23 l 65.902,-147.26" /><path
         id="path3784"
         style="fill:#ffffff;fill-opacity:1;fill-rule:nonzero;stroke:#000600;stroke-opacity:1;stroke-width:18.99750047;stroke-miterlimit:4;stroke-dasharray:none"
         d="m 982.18,2436.21 c -0.485,2.23 -0.246,4.29 0.718,6.19 0.965,1.89 2.762,3.12 5.383,3.69 l 58.479,12.62 c 1.67,0.36 3.5,0.3 5.47,-0.18 1.98,-0.48 3.85,-1.64 5.62,-3.45 20.62,-22.13 41.04,-43.91 61.27,-65.34 20.23,-21.43 40.71,-43.2 61.45,-65.29 l -32.12,148.82 c -0.01,2.34 0.57,4.27 1.74,5.82 1.16,1.55 2.69,2.53 4.6,2.94 l 50.97,11 c 2.51,0.54 4.75,0.28 6.73,-0.78 1.97,-1.07 3.24,-2.89 3.8,-5.5 l 56.23,-260.49 c 0.54,-2.48 0.22,-4.46 -0.96,-5.94 -1.17,-1.49 -3.02,-2.5 -5.52,-3.05 l -57.05,-12.31 c -1.55,-0.33 -3.05,-0.07 -4.48,0.79 -1.43,0.85 -3.01,2.07 -4.72,3.64 -21.74,23.83 -43.23,47.38 -64.48,70.67 -21.25,23.28 -42.81,46.83 -64.67,70.63 l 34.46,-159.6 c 0.59,-2.73 0.43,-4.9 -0.47,-6.52 -0.89,-1.62 -2.89,-2.76 -5.99,-3.43 l -50.8,-10.96 c -2.74,-0.6 -4.91,-0.26 -6.49,1.02 -1.58,1.28 -2.62,3.03 -3.1,5.26 l -56.07,259.75" /><path
         id="path3786"
         style="fill:#ffffff;fill-opacity:1;fill-rule:nonzero;stroke:#000600;stroke-opacity:1;stroke-width:18.99750047;stroke-miterlimit:4;stroke-dasharray:none"
         d="m 1313.1,2497.44 c -0.07,2.28 0.56,4.26 1.91,5.95 1.35,1.69 3.3,2.58 5.85,2.66 l 54,1.68 c 1.82,0.05 3.76,-0.64 5.81,-2.1 2.05,-1.46 3.12,-3.46 3.2,-5.99 l 3.23,-103.54 c 12.73,18.14 25.24,36.03 37.5,53.66 12.27,17.62 24.71,35.5 37.32,53.64 1.27,2.2 2.96,3.99 5.05,5.39 2.09,1.4 4.17,2.13 6.25,2.19 l 69.49,2.17 c 2.93,0.09 4.42,-0.81 4.48,-2.72 0.04,-1.27 -0.58,-2.8 -1.87,-4.62 l -82.46,-120.67 99.92,-145.98 c 1.41,-2.11 2.13,-3.8 2.17,-5.06 0.06,-1.9 -1.25,-2.89 -3.93,-2.97 l -69.13,-2.16 c -2.08,-0.06 -4.14,0.5 -6.19,1.71 -2.05,1.2 -3.78,2.86 -5.18,4.97 -6.75,8.92 -12.9,17.48 -18.47,25.67 -5.56,8.19 -10.98,16.36 -16.23,24.5 -5.26,8.14 -10.58,16.37 -15.97,24.7 -5.38,8.32 -11.27,17.08 -17.65,26.26 l -22.37,-28.46 2.31,-74.09 c 0.18,-5.58 -2.66,-8.45 -8.49,-8.63 l -53.81,-1.68 c -5.47,-0.17 -8.3,2.53 -8.47,8.1 l -8.27,265.42" /><path
         id="path3788"
         style="fill:#ffffff;fill-opacity:1;fill-rule:nonzero;stroke:#000600;stroke-opacity:1;stroke-width:18.99750047;stroke-miterlimit:4;stroke-dasharray:none"
         d="m 1626.47,2498.18 c 0.35,2.64 1.31,4.65 2.91,6.04 1.59,1.39 3.66,1.93 6.19,1.6 l 180.01,-23.38 c 2.66,-0.35 4.62,-1.43 5.86,-3.24 1.24,-1.82 1.68,-4.11 1.31,-6.86 l -6.05,-46.62 c -0.27,-2.13 -1.26,-4.07 -2.97,-5.83 -1.7,-1.75 -3.94,-2.44 -6.73,-2.08 l -117.58,15.26 -6.06,-46.74 90.72,-11.78 c 2.3,-0.3 4.12,-1.11 5.49,-2.44 1.37,-1.33 1.89,-3.31 1.54,-5.95 l -5.29,-40.71 c -0.22,-1.77 -1.11,-3.38 -2.66,-4.84 -1.54,-1.46 -3.58,-2.02 -6.12,-1.69 l -90.91,11.8 -6.26,-48.26 121.93,-15.82 c 5.45,-0.71 7.79,-3.95 7.04,-9.71 l -6.15,-47.37 c -0.16,-1.26 -0.8,-2.31 -1.89,-3.19 -0.94,-3.45 -3.65,-4.88 -8.12,-4.3 l -183.46,23.83 c -2.42,0.31 -4.27,1.23 -5.54,2.73 -1.28,1.51 -1.74,3.64 -1.38,6.41 l 34.17,263.14" /><path
         id="path3790"
         style="fill:#ffffff;fill-opacity:1;fill-rule:nonzero;stroke:#000600;stroke-opacity:1;stroke-width:18.99750047;stroke-miterlimit:4;stroke-dasharray:none"
         d="m 1908.32,2456.02 c 0.69,2.17 1.92,3.84 3.7,5.01 1.78,1.16 3.95,1.35 6.51,0.53 l 57.03,-18.09 c 1.62,-0.51 3.17,-1.47 4.65,-2.87 1.48,-1.4 2.52,-3.33 3.16,-5.79 6.9,-29.44 13.82,-58.49 20.73,-87.13 6.92,-28.65 13.88,-57.72 20.91,-87.2 l 46.03,145.13 c 1.16,2.03 2.62,3.43 4.4,4.19 1.78,0.77 3.59,0.85 5.46,0.26 l 49.71,-15.76 c 2.44,-0.78 4.25,-2.11 5.43,-4.02 1.2,-1.9 1.39,-4.12 0.58,-6.66 l -80.56,-254.03 c -0.77,-2.41 -2.03,-3.98 -3.78,-4.68 -1.76,-0.71 -3.86,-0.67 -6.3,0.11 l -55.64,17.64 c -1.51,0.48 -2.68,1.45 -3.49,2.91 -0.82,1.45 -1.59,3.29 -2.29,5.5 -7.04,31.48 -13.99,62.6 -20.88,93.37 -6.87,30.76 -13.89,61.9 -21.04,93.42 l -49.36,-155.64 c -0.85,-2.66 -2.06,-4.47 -3.64,-5.43 -1.58,-0.96 -3.89,-0.96 -6.92,0 l -49.53,15.71 c -2.67,0.84 -4.38,2.22 -5.12,4.12 -0.75,1.89 -0.77,3.93 -0.08,6.1 l 80.33,253.3" /><path
         id="path3792"
         style="fill:#ffffff;fill-opacity:1;fill-rule:nonzero;stroke:#000600;stroke-opacity:1;stroke-width:18.99750047;stroke-miterlimit:4;stroke-dasharray:none"
         d="m 2315.09,2104.41 c -5.53,-7.58 -9.2,-14.76 -11.03,-21.51 -1.81,-6.76 -2.28,-13 -1.4,-18.74 0.88,-5.75 2.97,-10.99 6.25,-15.73 3.27,-4.74 7.28,-8.84 12.02,-12.29 4.94,-3.6 10.26,-6.1 15.96,-7.51 5.71,-1.41 11.5,-1.55 17.39,-0.42 5.89,1.13 11.7,3.6 17.43,7.43 5.73,3.82 11.06,9.11 16,15.88 l 94.98,130.41 c 1.33,1.84 3.11,2.98 5.31,3.42 2.21,0.43 4.34,-0.1 6.41,-1.61 l 43.19,-31.45 c 2.27,-1.65 3.54,-3.64 3.82,-5.96 0.27,-2.31 -0.23,-4.34 -1.5,-6.08 l -94.33,-129.53 c -13.06,-17.93 -26.57,-31.13 -40.52,-39.63 -13.96,-8.49 -27.92,-13.32 -41.92,-14.5 -13.98,-1.18 -27.8,0.73 -41.43,5.73 -13.64,4.99 -26.67,12.02 -39.1,21.06 -12.42,9.05 -23.09,19.37 -32,30.96 -8.92,11.58 -14.93,24.27 -18.02,38.04 -3.1,13.78 -2.77,28.59 1,44.42 3.76,15.84 12.06,32.56 24.9,50.19 l 94.33,129.52 c 1.27,1.74 2.97,2.89 5.11,3.45 2.14,0.56 4.04,0.23 5.71,-0.98 l 44.26,-32.24 c 1.47,-1.08 2.56,-2.85 3.24,-5.31 0.7,-2.46 0.33,-4.66 -1.08,-6.61 l -94.98,-130.41" /><path
         id="path3794"
         style="fill:#ffffff;fill-opacity:1;fill-rule:nonzero;stroke:#000600;stroke-opacity:1;stroke-width:18.99750047;stroke-miterlimit:4;stroke-dasharray:none"
         d="m 2391.46,1917.03 c 2.09,0.41 4.23,0.81 6.42,1.21 2.18,0.4 4.48,0.7 6.91,0.9 l 151.3,14.27 c 8.56,24.58 17.01,48.89 25.36,72.91 8.34,24.03 16.78,48.33 25.35,72.91 0.34,1.2 0.72,2.25 1.16,3.13 0.43,0.89 1,1.69 1.73,2.41 0.94,0.44 1.76,0.18 2.42,-0.77 0.66,-0.95 1.62,-1.7 2.88,-2.27 l 39.38,-50.05 c 2.78,-3.54 3.08,-7.81 0.87,-12.8 l -27.24,-78.49 83.03,7.6 c 5.36,0.96 9.44,-0.33 12.23,-3.87 l 35.53,-45.16 c 0.6,-0.77 1.32,-1.67 2.15,-2.73 0.83,-1.05 1.58,-2.06 2.24,-3.01 0.67,-0.95 1.12,-1.88 1.35,-2.78 0.23,-0.91 0.04,-1.6 -0.56,-2.07 -1.19,-0.93 -2.9,-1.43 -5.12,-1.47 l -154.67,-14.6 -51.51,-149.72 c -0.65,-2.05 -1.33,-3.8 -2.05,-5.22 -0.74,-1.43 -1.54,-2.41 -2.41,-2.94 -1.49,-1.18 -2.92,-0.9 -4.27,0.82 l -40.51,51.48 c -1.29,1.63 -1.96,3.51 -2.01,5.64 -0.07,2.12 0.45,4.24 1.54,6.33 l 29.42,86.48 -90.63,-8.68 c -2.3,-0.57 -4.47,-0.57 -6.53,-0.01 -2.05,0.56 -3.71,1.65 -5,3.28 l -38.57,49.03 -2.04,2.59 c -0.61,0.77 -0.91,1.62 -0.91,2.55 -0.01,0.92 0.39,1.7 1.18,2.32 0.5,0.4 1.03,0.66 1.58,0.78" /><path
         id="path3796"
         style="fill:#959595;fill-opacity:1;fill-rule:nonzero;stroke:none"
         d="m 1472.2,2213.4 c 0,-5.97 -4.85,-10.82 -10.83,-10.82 -5.97,0 -10.82,4.85 -10.82,10.82 0,5.98 4.85,10.82 10.82,10.82 5.98,0 10.83,-4.84 10.83,-10.82" /><path
         id="path3798"
         style="fill:#959595;fill-opacity:1;fill-rule:nonzero;stroke:none"
         d="m 1521.57,2268.51 c 0,-5.98 -4.84,-10.82 -10.82,-10.82 -5.97,0 -10.82,4.84 -10.82,10.82 0,5.97 4.85,10.82 10.82,10.82 5.98,0 10.82,-4.85 10.82,-10.82" /><path
         id="path3800"
         style="fill:#959595;fill-opacity:1;fill-rule:nonzero;stroke:none"
         d="m 1412.67,2296.81 c 0,-5.97 -4.85,-10.82 -10.82,-10.82 -5.98,0 -10.82,4.85 -10.82,10.82 0,5.98 4.84,10.83 10.82,10.83 5.97,0 10.82,-4.85 10.82,-10.83" /><path
         id="path3802"
         style="fill:#959595;fill-opacity:1;fill-rule:nonzero;stroke:none"
         d="m 1470.95,2321.58 c 0,-5.97 -4.85,-10.82 -10.83,-10.82 -5.97,0 -10.82,4.85 -10.82,10.82 0,5.98 4.85,10.82 10.82,10.82 5.98,0 10.83,-4.84 10.83,-10.82" /><path
         id="path3804"
         style="fill:#959595;fill-opacity:1;fill-rule:nonzero;stroke:none"
         d="m 1510.49,2354.93 c 0,-5.97 -4.85,-10.82 -10.82,-10.82 -5.98,0 -10.82,4.85 -10.82,10.82 0,5.98 4.84,10.83 10.82,10.83 5.97,0 10.82,-4.85 10.82,-10.83" /><path
         id="path3806"
         style="fill:#959595;fill-opacity:1;fill-rule:nonzero;stroke:none"
         d="m 1460.54,2383.24 c 0,-5.98 -4.85,-10.82 -10.82,-10.82 -5.98,0 -10.82,4.84 -10.82,10.82 0,5.98 4.84,10.82 10.82,10.82 5.97,0 10.82,-4.84 10.82,-10.82" /><path
         id="path3808"
         style="fill:#959595;fill-opacity:1;fill-rule:nonzero;stroke:none"
         d="m 1403.1,2411.23 c 0,-5.97 -4.85,-10.82 -10.83,-10.82 -5.98,0 -10.82,4.85 -10.82,10.82 0,5.98 4.84,10.82 10.82,10.82 5.98,0 10.83,-4.84 10.83,-10.82" /><path
         id="path3810"
         style="fill:#ffffff;fill-opacity:1;fill-rule:nonzero;stroke:none"
         d="m 1517.07,2273.01 c 0,-5.98 -4.84,-10.83 -10.82,-10.83 -5.98,0 -10.82,4.85 -10.82,10.83 0,5.97 4.84,10.82 10.82,10.82 5.98,0 10.82,-4.85 10.82,-10.82" /><path
         id="path3812"
         style="fill:#ffffff;fill-opacity:1;fill-rule:nonzero;stroke:none"
         d="m 1408.17,2301.31 c 0,-5.97 -4.84,-10.82 -10.83,-10.82 -5.97,0 -10.82,4.85 -10.82,10.82 0,5.98 4.85,10.83 10.82,10.83 5.99,0 10.83,-4.85 10.83,-10.83" /><path
         id="path3814"
         style="fill:#ffffff;fill-opacity:1;fill-rule:nonzero;stroke:none"
         d="m 1466.45,2326.08 c 0,-5.98 -4.85,-10.82 -10.82,-10.82 -5.99,0 -10.83,4.84 -10.83,10.82 0,5.98 4.84,10.82 10.83,10.82 5.97,0 10.82,-4.84 10.82,-10.82" /><path
         id="path3816"
         style="fill:#ffffff;fill-opacity:1;fill-rule:nonzero;stroke:none"
         d="m 1495.17,2347.48 c -6.59,0 -11.95,5.37 -11.95,11.95 0,6.59 5.36,11.95 11.95,11.95 6.59,0 11.95,-5.36 11.95,-11.95 0,-6.58 -5.36,-11.95 -11.95,-11.95" /><path
         id="path3818"
         style="fill:#959595;fill-opacity:1;fill-rule:nonzero;stroke:none"
         d="m 1495.17,2372.51 c -7.21,0 -13.07,-5.87 -13.07,-13.08 0,-7.2 5.86,-13.07 13.07,-13.07 7.2,0 13.07,5.87 13.07,13.07 0,7.21 -5.87,13.08 -13.07,13.08 z m 0,-2.25 c 5.97,0 10.83,-4.85 10.83,-10.83 0,-5.97 -4.86,-10.82 -10.83,-10.82 -5.98,0 -10.82,4.85 -10.82,10.82 0,5.98 4.84,10.83 10.82,10.83" /><path
         id="path3820"
         style="fill:#ffffff;fill-opacity:1;fill-rule:nonzero;stroke:none"
         d="m 1456.04,2387.74 c 0,-5.98 -4.85,-10.82 -10.83,-10.82 -5.97,0 -10.82,4.84 -10.82,10.82 0,5.97 4.85,10.82 10.82,10.82 5.98,0 10.83,-4.85 10.83,-10.82" /><path
         id="path3822"
         style="fill:#ffffff;fill-opacity:1;fill-rule:nonzero;stroke:none"
         d="m 1398.59,2415.74 c 0,-5.98 -4.84,-10.83 -10.82,-10.83 -5.98,0 -10.82,4.85 -10.82,10.83 0,5.97 4.84,10.82 10.82,10.82 5.98,0 10.82,-4.85 10.82,-10.82" /><path
         id="path3824"
         style="fill:#ffffff;fill-opacity:1;fill-rule:nonzero;stroke:#000600;stroke-opacity:1;stroke-width:18.99750047;stroke-miterlimit:4;stroke-dasharray:none"
         d="m 1204.5,2723.76 c 0,1.54 0.52,2.78 1.56,3.7 1.05,0.93 2.34,1.39 3.89,1.39 h 124.85 c 1.4,0 2.63,-0.42 3.72,-1.27 1.08,-0.85 1.69,-2.12 1.85,-3.82 v -28.81 c 0,-1.39 -0.48,-2.72 -1.45,-3.99 -0.97,-1.27 -2.34,-1.91 -4.12,-1.91 h -40.03 V 2562 c 0,-1.39 -0.5,-2.65 -1.5,-3.77 -1.01,-1.12 -2.32,-1.69 -3.94,-1.69 h -34.02 c -1.32,0 -2.55,0.53 -3.71,1.57 -1.16,1.05 -1.73,2.34 -1.73,3.89 v 127.05 h -39.92 c -1.55,0 -2.84,0.5 -3.89,1.51 -1.04,1 -1.56,2.46 -1.56,4.39 v 28.81" /><path
         id="path3826"
         style="fill:#ffffff;fill-opacity:1;fill-rule:nonzero;stroke:#000600;stroke-opacity:1;stroke-width:18.99750047;stroke-miterlimit:4;stroke-dasharray:none"
         d="m 1368.91,2723.75 c 0.08,1.31 0.56,2.49 1.45,3.54 0.89,1.04 2.07,1.56 3.54,1.56 h 34.46 c 1.16,0 2.36,-0.49 3.6,-1.45 1.24,-0.97 1.86,-2.19 1.86,-3.67 v -55.1 h 57.66 v 55.1 c 0,1.4 0.48,2.6 1.45,3.61 0.97,1 2.22,1.51 3.76,1.51 h 33.92 c 1.54,0 2.89,-0.39 4.04,-1.16 1.16,-0.77 1.74,-2.01 1.74,-3.71 v -162.33 c 0,-1.7 -0.5,-2.98 -1.51,-3.83 -1,-0.85 -2.31,-1.28 -3.93,-1.28 h -34.26 c -1.54,0 -2.79,0.43 -3.76,1.28 -0.97,0.85 -1.45,2.13 -1.45,3.83 v 65.91 h -57.66 v -65.91 c 0,-1.63 -0.52,-2.88 -1.57,-3.77 -1.04,-0.89 -2.46,-1.34 -4.23,-1.34 h -34.12 c -3.25,0 -4.91,1.51 -4.99,4.53 v 162.68" /><path
         id="path3828"
         style="fill:#ffffff;fill-opacity:1;fill-rule:nonzero;stroke:#000600;stroke-opacity:1;stroke-width:18.99750047;stroke-miterlimit:4;stroke-dasharray:none"
         d="m 1554.34,2723.52 c 0,1.62 0.44,2.91 1.32,3.88 0.89,0.96 2.14,1.45 3.76,1.45 h 115.12 c 1.7,0 3.02,-0.5 3.95,-1.5 0.92,-1.01 1.39,-2.35 1.39,-4.05 v -28.69 c 0,-1.32 -0.47,-2.57 -1.39,-3.77 -0.93,-1.19 -2.29,-1.79 -4.07,-1.79 h -75.18 v -28.77 h 58.02 c 1.46,0 2.68,-0.35 3.65,-1.05 0.97,-0.69 1.44,-1.85 1.44,-3.48 v -25.06 c 0,-1.08 -0.42,-2.13 -1.27,-3.13 -0.86,-1.01 -2.09,-1.51 -3.71,-1.51 h -58.13 v -29.71 h 77.97 c 3.48,0 5.22,-1.77 5.22,-5.32 v -29.16 c 0,-0.77 -0.31,-1.46 -0.93,-2.07 -0.31,-2.17 -1.89,-3.25 -4.75,-3.25 h -117.33 c -1.54,0 -2.78,0.41 -3.7,1.23 -0.93,0.8 -1.38,2.07 -1.38,3.76 v 161.99" /><path
         id="path3830"
         style="fill:#ffffff;fill-opacity:1;fill-rule:nonzero;stroke:#000600;stroke-opacity:1;stroke-width:18.99750047;stroke-miterlimit:4;stroke-dasharray:none"
         d="m 618.199,510.98 c 0,4.231 -0.742,8.461 -2.222,12.692 -1.481,4.226 -3.629,8.008 -6.45,11.316 -2.824,3.313 -6.242,6.032 -10.257,8.141 -4.028,2.121 -8.571,3.18 -13.645,3.18 h -44.848 v -70.661 h 44.848 c 5.074,0 9.652,1.032 13.746,3.071 4.09,2.043 7.508,4.691 10.262,7.929 2.75,3.25 4.863,6.981 6.344,11.211 1.48,4.243 2.222,8.602 2.222,13.121 z M 458.91,603.629 c 0,2.961 0.774,5.332 2.328,7.09 1.551,1.761 3.879,2.64 6.985,2.64 h 135.168 c 9.73,0 18.898,-1.339 27.5,-4.007 8.601,-2.68 16.496,-6.391 23.695,-11.114 7.191,-4.718 13.676,-10.367 19.457,-16.918 5.781,-6.558 10.684,-13.64 14.703,-21.261 4.02,-7.618 7.082,-15.629 9.203,-24.02 2.114,-8.379 3.168,-16.879 3.168,-25.48 0,-12.7 -2.289,-25.098 -6.871,-37.231 -4.582,-12.129 -11.105,-22.918 -19.566,-32.367 -8.465,-9.449 -18.617,-17.09 -30.461,-22.949 -11.848,-5.852 -24.961,-8.852 -39.348,-8.992 H 540.777 V 308.332 c 0,-6.062 -3.25,-9.102 -9.73,-9.102 h -62.824 c -2.828,0 -5.082,0.739 -6.774,2.231 -1.691,1.469 -2.539,3.758 -2.539,6.871 v 295.297" /><path
         id="path3832"
         style="fill:#ffffff;fill-opacity:1;fill-rule:nonzero;stroke:#000600;stroke-opacity:1;stroke-width:18.99750047;stroke-miterlimit:4;stroke-dasharray:none"
         d="m 814.293,456.191 c 0,-11.711 1.969,-22.64 5.91,-32.781 3.945,-10.16 9.477,-19.012 16.582,-26.551 7.117,-7.539 15.535,-13.468 25.25,-17.769 9.719,-4.301 20.422,-6.449 32.11,-6.449 11.683,0 22.425,2.148 32.218,6.449 9.785,4.301 18.239,10.23 25.352,17.769 7.113,7.539 12.64,16.391 16.582,26.551 3.937,10.141 5.918,21.07 5.918,32.781 0,11.559 -1.981,22.45 -5.918,32.688 -3.942,10.223 -9.469,19.141 -16.582,26.75 -7.113,7.621 -15.567,13.621 -25.352,17.98 -9.793,4.371 -20.535,6.571 -32.218,6.571 -11.688,0 -22.391,-2.2 -32.11,-6.571 -9.715,-4.359 -18.133,-10.359 -25.25,-17.98 -7.105,-7.609 -12.637,-16.527 -16.582,-26.75 -3.941,-10.238 -5.91,-21.129 -5.91,-32.688 z m -81.867,-0.203 c 0,14.942 1.906,29.293 5.715,43.043 3.808,13.75 9.242,26.649 16.297,38.707 7.054,12.051 15.484,23.024 25.296,32.891 9.809,9.871 20.711,18.312 32.704,25.281 11.996,6.981 24.871,12.41 38.632,16.289 13.758,3.871 28.114,5.821 43.075,5.821 14.816,0 29.14,-1.95 42.968,-5.821 13.828,-3.879 26.742,-9.308 38.739,-16.289 11.996,-6.969 22.933,-15.41 32.808,-25.281 9.88,-9.867 18.31,-20.84 25.3,-32.891 6.98,-12.058 12.42,-24.957 16.3,-38.707 3.88,-13.75 5.81,-28.101 5.81,-43.043 0,-14.949 -1.93,-29.297 -5.81,-43.047 -3.88,-13.761 -9.32,-26.589 -16.3,-38.511 -6.99,-11.918 -15.42,-22.77 -25.3,-32.571 -9.875,-9.808 -20.812,-18.23 -32.808,-25.281 -11.997,-7.058 -24.911,-12.476 -38.739,-16.289 -13.828,-3.809 -28.152,-5.707 -42.968,-5.707 -14.961,0 -29.317,1.898 -43.075,5.707 -13.761,3.813 -26.636,9.231 -38.632,16.289 -11.993,7.051 -22.895,15.473 -32.704,25.281 -9.812,9.801 -18.242,20.653 -25.296,32.571 -7.055,11.922 -12.489,24.75 -16.297,38.511 -3.809,13.75 -5.715,28.098 -5.715,43.047" /><path
         id="path3834"
         style="fill:#ffffff;fill-opacity:1;fill-rule:nonzero;stroke:#000600;stroke-opacity:1;stroke-width:18.99750047;stroke-miterlimit:4;stroke-dasharray:none"
         d="m 1186.17,537.641 v -162.68 h 17.77 c 3.24,0 6.41,0.109 9.52,0.309 3.1,0.218 6.2,0.46 9.3,0.761 10.58,0.84 20.45,3.399 29.62,7.707 9.16,4.301 17.17,9.942 24.01,16.922 6.84,6.988 12.19,15.199 16.08,24.649 3.87,9.453 5.81,19.742 5.81,30.882 0,11.848 -2.22,22.75 -6.66,32.688 -4.44,9.941 -10.47,18.543 -18.08,25.812 -7.62,7.25 -16.54,12.899 -26.77,16.911 -10.22,4.019 -21.12,6.039 -32.68,6.039 z m 193.55,-81.653 c 0,-14.949 -1.9,-29.156 -5.71,-42.629 -3.8,-13.48 -9.23,-26.027 -16.29,-37.66 -7.05,-11.629 -15.47,-22.168 -25.27,-31.621 -9.81,-9.449 -20.66,-17.488 -32.58,-24.117 -11.92,-6.629 -24.79,-11.742 -38.61,-15.332 -13.82,-3.59 -28.13,-5.399 -42.94,-5.399 h -104.29 c -2.54,0 -4.79,0.559 -6.76,1.7 -1.98,1.121 -2.97,3.511 -2.97,7.191 v 295.508 c 0,2.961 0.81,5.359 2.44,7.199 1.61,1.832 4.05,2.742 7.29,2.742 h 104.29 c 14.81,0 29.09,-1.832 42.84,-5.488 13.75,-3.684 26.58,-8.891 38.5,-15.66 11.91,-6.774 22.81,-14.883 32.68,-24.32 9.87,-9.461 18.29,-20.032 25.28,-31.731 6.98,-11.711 12.4,-24.332 16.29,-37.871 3.87,-13.539 5.81,-27.711 5.81,-42.512" /><path
         id="path3836"
         style="fill:#ffffff;fill-opacity:1;fill-rule:nonzero;stroke:#000600;stroke-opacity:1;stroke-width:18.99750047;stroke-miterlimit:4;stroke-dasharray:none"
         d="m 1674.6,590.52 c 2.4,-1.411 4.16,-3.239 5.29,-5.5 1.14,-2.258 0.92,-4.938 -0.63,-8.051 l -35.75,-50.758 c -1.56,-2.402 -3.21,-3.781 -4.97,-4.121 -1.77,-0.36 -3.91,0.242 -6.45,1.801 -6.91,5.211 -14.53,9.23 -22.85,12.058 -8.32,2.813 -17.13,4.231 -26.44,4.231 -11.57,0 -22.21,-2.2 -31.94,-6.571 -9.74,-4.359 -18.13,-10.359 -25.18,-17.98 -7.05,-7.609 -12.55,-16.488 -16.5,-26.649 -3.95,-10.148 -5.92,-21.011 -5.92,-32.57 0,-11.578 1.97,-22.398 5.92,-32.469 3.95,-10.089 9.45,-18.91 16.5,-26.453 7.05,-7.547 15.44,-13.5 25.18,-17.867 9.73,-4.383 20.37,-6.562 31.94,-6.562 9.31,0 18.19,1.441 26.65,4.332 8.46,2.89 16.15,6.961 23.06,12.168 2.54,1.55 4.66,2.179 6.35,1.902 1.69,-0.281 3.38,-1.551 5.08,-3.801 l 36.17,-52.039 c 1.54,-3.109 1.76,-5.723 0.63,-7.832 -1.13,-2.117 -2.89,-3.879 -5.29,-5.289 -13.25,-8.891 -27.54,-15.758 -42.83,-20.629 -15.31,-4.859 -31.42,-7.289 -48.34,-7.289 -14.95,0 -29.3,1.898 -43.05,5.707 -13.75,3.813 -26.62,9.231 -38.6,16.289 -12,7.051 -22.88,15.473 -32.68,25.281 -9.81,9.801 -18.24,20.653 -25.29,32.571 -7.05,11.922 -12.48,24.75 -16.29,38.511 -3.8,13.75 -5.7,28.098 -5.7,43.047 0,14.942 1.9,29.293 5.7,43.043 3.81,13.75 9.24,26.649 16.29,38.707 7.05,12.051 15.48,23.024 25.29,32.891 9.8,9.871 20.68,18.312 32.68,25.281 11.98,6.981 24.85,12.41 38.6,16.289 13.75,3.871 28.1,5.821 43.05,5.821 16.92,0 32.9,-2.372 47.91,-7.09 15.02,-4.731 29.16,-11.532 42.41,-20.41" /><path
         id="path3838"
         style="fill:#ffffff;fill-opacity:1;fill-rule:nonzero;stroke:#000600;stroke-opacity:1;stroke-width:18.99750047;stroke-miterlimit:4;stroke-dasharray:none"
         d="m 1861.39,514.578 c -2.68,-7.199 -5.39,-14.949 -8.15,-23.269 -2.74,-8.321 -5.46,-16.719 -8.14,-25.18 -2.68,-8.449 -5.39,-16.809 -8.15,-25.07 -2.74,-8.239 -5.46,-15.957 -8.14,-23.161 h 64.95 z m -38.5,90.543 c 0.14,0.84 0.6,1.75 1.38,2.738 0.77,0.993 1.72,1.911 2.85,2.762 1.13,0.84 2.32,1.508 3.59,2.008 1.27,0.492 2.47,0.73 3.61,0.73 h 54.15 c 2.39,0 4.44,-0.73 6.13,-2.218 1.69,-1.481 2.96,-2.782 3.81,-3.911 l 5.29,-12.05 111.06,-286.43 c 1.12,-2.82 0.91,-5.109 -0.64,-6.879 -1.55,-1.762 -4.24,-2.641 -8.04,-2.641 h -60.71 c -3.25,0 -5.75,0.59 -7.51,1.809 -1.77,1.191 -3.14,3.203 -4.13,6.02 -2.82,7.203 -5.57,14.351 -8.24,21.472 -2.69,7.117 -5.36,14.278 -8.05,21.469 h -112.31 c -2.69,-7.191 -5.4,-14.352 -8.15,-21.469 -2.75,-7.121 -5.47,-14.269 -8.14,-21.472 -1.84,-5.207 -5.44,-7.829 -10.79,-7.829 h -62.41 c -2.68,0 -4.9,0.7 -6.67,2.122 -1.75,1.398 -2.08,3.519 -0.94,6.347 l 114.86,297.422" /><path
         id="path3840"
         style="fill:#ffffff;fill-opacity:1;fill-rule:nonzero;stroke:#000600;stroke-opacity:1;stroke-width:18.99750047;stroke-miterlimit:4;stroke-dasharray:none"
         d="m 2082.44,400.77 c 2.4,-1.981 5.47,-4.629 9.21,-7.93 3.73,-3.32 8,-6.602 12.79,-9.84 7.2,-4.801 14.32,-8.531 21.37,-11.211 7.05,-2.68 14.45,-4.019 22.21,-4.019 7.19,0 13.22,0.812 18.08,2.429 4.88,1.621 8.71,3.762 11.54,6.449 2.82,2.684 4.83,5.774 6.02,9.301 1.2,3.52 1.8,7.25 1.8,11.199 0,4.364 -1.65,8.282 -4.97,11.731 -3.31,3.453 -7.36,6.519 -12.16,9.191 -4.79,2.68 -9.8,4.969 -15.02,6.871 -5.22,1.911 -9.74,3.489 -13.54,4.758 -16.92,5.922 -31.73,12.289 -44.42,19.133 -12.69,6.816 -23.27,14.438 -31.74,22.816 -8.45,8.391 -14.8,17.622 -19.03,27.692 -4.23,10.07 -6.35,21.308 -6.35,33.711 0,13.109 2.65,25.019 7.93,35.73 5.3,10.699 12.83,19.86 22.64,27.469 9.8,7.609 21.61,13.488 35.43,17.648 13.83,4.161 29.27,6.243 46.33,6.243 12.83,0 25.13,-1.461 36.91,-4.34 11.78,-2.903 23.38,-7.512 34.8,-13.86 4.79,-2.82 9.34,-5.75 13.65,-8.781 4.29,-3.031 8.06,-5.961 11.32,-8.781 3.24,-2.82 5.81,-5.488 7.71,-8.027 1.91,-2.543 2.86,-4.731 2.86,-6.563 0,-1.84 -0.47,-3.527 -1.37,-5.078 -0.92,-1.563 -2.3,-3.313 -4.14,-5.289 l -32.36,-34.481 c -2.39,-2.402 -4.79,-3.589 -7.19,-3.589 -1.98,0 -3.78,0.546 -5.4,1.687 -1.62,1.121 -3.41,2.543 -5.39,4.231 l -1.9,1.691 c -2.82,2.398 -5.96,4.871 -9.42,7.41 -3.45,2.539 -7.15,4.82 -11.1,6.867 -3.95,2.043 -8.11,3.731 -12.48,5.082 -4.37,1.34 -8.82,2 -13.33,2 -4.65,0 -9.02,-0.379 -13.11,-1.16 -4.1,-0.769 -7.69,-2.012 -10.8,-3.699 -3.09,-1.691 -5.56,-3.922 -7.4,-6.66 -1.82,-2.762 -2.74,-6.102 -2.74,-10.051 0,-3.961 0.98,-7.371 2.96,-10.262 1.97,-2.886 4.93,-5.566 8.88,-8.039 3.95,-2.469 8.85,-4.801 14.7,-6.98 5.85,-2.188 12.66,-4.539 20.42,-7.078 14.94,-4.942 28.73,-10.129 41.35,-15.551 12.63,-5.43 23.51,-11.852 32.68,-19.258 9.17,-7.402 16.32,-16.25 21.48,-26.543 5.14,-10.289 7.71,-22.777 7.71,-37.437 0,-15.524 -3.17,-29.582 -9.52,-42.211 -6.34,-12.621 -15.05,-23.371 -26.12,-32.262 -11.08,-8.867 -24.08,-15.75 -39.02,-20.617 -14.96,-4.864 -31.03,-7.301 -48.24,-7.301 -16.22,0 -32.16,2.91 -47.8,8.699 -15.65,5.801 -30.25,13.578 -43.79,23.34 -5.64,4.102 -10.4,8.129 -14.28,12.102 -3.88,3.949 -6.95,7.128 -9.21,9.539 l -0.63,0.629 c -0.14,0.281 -0.28,0.46 -0.42,0.539 -0.15,0.07 -0.28,0.16 -0.42,0.312 -0.15,0.277 -0.28,0.461 -0.43,0.527 -0.14,0.082 -0.28,0.172 -0.42,0.321 -3.24,3.543 -4.86,6.371 -4.86,8.492 0,2.398 1.62,5.078 4.86,8.059 l 36.59,34.91 c 2.97,2.109 5.36,3.172 7.2,3.172 1.27,0 2.61,-0.422 4.02,-1.274 1.41,-0.848 3.1,-2.117 5.07,-3.808" /><path
         id="path3842"
         style="fill:#ffffff;fill-opacity:1;fill-rule:nonzero;stroke:#000600;stroke-opacity:1;stroke-width:18.99750047;stroke-miterlimit:4;stroke-dasharray:none"
         d="m 2303.28,604.082 c 0,2.809 0.96,5.059 2.86,6.746 1.91,1.692 4.26,2.531 7.09,2.531 h 227.61 c 2.54,0 4.79,-0.769 6.77,-2.32 1.97,-1.551 3.1,-3.859 3.39,-6.957 v -52.523 c 0,-2.528 -0.89,-4.957 -2.65,-7.27 -1.77,-2.328 -4.27,-3.488 -7.51,-3.488 h -72.98 v -231.61 c 0,-2.55 -0.92,-4.839 -2.74,-6.89 -1.84,-2.051 -4.22,-3.071 -7.17,-3.071 h -62.04 c -2.39,0 -4.64,0.961 -6.75,2.86 -2.11,1.898 -3.16,4.269 -3.16,7.101 v 231.61 h -72.77 c -2.83,0 -5.18,0.918 -7.09,2.738 -1.9,1.832 -2.86,4.512 -2.86,8.02 v 52.523" /><path
         id="path3844"
         style="fill:#ffffff;fill-opacity:1;fill-rule:nonzero;stroke:none"
         d="m 1993,1168.48 c 3.29,-1.58 5.4,-3.66 6.32,-6.25 0.8,-2.28 0.42,-5.05 -1.16,-8.34 l -82,-172.73 c -1.45,-3.07 -3.56,-5.101 -6.33,-6.07 -2.58,-0.918 -5.26,-0.602 -8.01,0.992 l -53.67,24.798 c -3.5,1.67 -5.81,4.04 -6.9,7.13 -0.8,2.26 -0.63,5.15 0.5,8.66 l 51.2,108.17 -107.86,51.87 c -1.44,0.95 -2.58,2 -3.45,3.15 -0.86,1.16 -1.66,2.24 -2.39,3.26 -0.13,1.41 -0.19,2.86 -0.16,4.33 0.03,1.47 0.41,2.97 1.14,4.5 l 25.14,52.7 c 1.36,2.85 3.66,4.85 6.91,6 3.08,1.09 5.83,1.06 8.24,-0.09 L 1993,1168.48" /><path
         id="path3846"
         style="fill:none;stroke:#c2202b;stroke-width:18.00309944;stroke-linecap:butt;stroke-linejoin:miter;stroke-miterlimit:10;stroke-dasharray:none;stroke-opacity:1"
         d="m 1993,1168.48 c 3.29,-1.58 5.4,-3.66 6.32,-6.25 0.8,-2.28 0.42,-5.05 -1.16,-8.34 l -82,-172.73 c -1.45,-3.07 -3.56,-5.101 -6.33,-6.07 -2.58,-0.918 -5.26,-0.602 -8.01,0.992 l -53.67,24.798 c -3.5,1.67 -5.81,4.04 -6.9,7.13 -0.8,2.26 -0.63,5.15 0.5,8.66 l 51.2,108.17 -107.86,51.87 c -1.44,0.95 -2.58,2 -3.45,3.15 -0.86,1.16 -1.66,2.24 -2.39,3.26 -0.13,1.41 -0.19,2.86 -0.16,4.33 0.03,1.47 0.41,2.97 1.14,4.5 l 25.14,52.7 c 1.36,2.85 3.66,4.85 6.91,6 3.08,1.09 5.83,1.06 8.24,-0.09 z" /><path
         id="path3848"
         style="fill:#ffffff;fill-opacity:1;fill-rule:nonzero;stroke:none"
         d="m 1456.87,2205.96 c -6.59,0 -11.94,5.36 -11.94,11.95 0,6.58 5.35,11.95 11.94,11.95 6.59,0 11.95,-5.37 11.95,-11.95 0,-6.59 -5.36,-11.95 -11.95,-11.95" /><path
         id="path3850"
         style="fill:#959595;fill-opacity:1;fill-rule:nonzero;stroke:none"
         d="m 1456.87,2230.98 c -7.21,0 -13.07,-5.87 -13.07,-13.07 0,-7.22 5.86,-13.08 13.07,-13.08 7.21,0 13.08,5.86 13.08,13.08 0,7.2 -5.87,13.07 -13.08,13.07 z m 0,-2.25 c 5.98,0 10.83,-4.85 10.83,-10.82 0,-5.98 -4.85,-10.83 -10.83,-10.83 -5.98,0 -10.82,4.85 -10.82,10.83 0,5.97 4.84,10.82 10.82,10.82" /></g></g></svg>