<?xml version="1.0" standalone="no"?>
<!DOCTYPE svg PUBLIC "-//W3C//DTD SVG 20010904//EN"
 "http://www.w3.org/TR/2001/REC-SVG-20010904/DTD/svg10.dtd">
<svg version="1.0" xmlns="http://www.w3.org/2000/svg"
 width="95.000000pt" height="95.000000pt" viewBox="0 0 95.000000 95.000000"
 preserveAspectRatio="xMidYMid meet">
<metadata>
Created by potrace 1.11, written by Peter Selinger 2001-2013
</metadata>
<g transform="translate(0.000000,95.000000) scale(0.100000,-0.100000)"
fill="#000000" stroke="none">
<path d="M359 923 c-6 -15 -29 -66 -51 -113 -23 -47 -49 -110 -60 -140 -11
-33 -34 -71 -58 -95 -33 -35 -48 -67 -110 -244 -43 -125 -70 -217 -68 -235 3
-29 9 -33 88 -63 102 -39 135 -41 151 -11 6 12 43 112 81 222 63 182 69 207
65 261 -3 44 1 73 15 110 11 28 27 90 36 138 10 48 21 88 27 88 5 0 17 -40 26
-88 9 -48 26 -110 37 -138 14 -36 18 -66 15 -110 -4 -50 2 -77 33 -165 20 -58
51 -148 69 -200 42 -124 51 -140 79 -140 39 0 151 38 181 62 35 27 32 49 -36
240 -75 214 -99 267 -130 289 -17 12 -34 38 -44 72 -10 28 -37 93 -60 142 -24
50 -48 102 -54 118 -9 24 -15 27 -38 21 -16 -4 -39 -12 -52 -19 -20 -10 -31
-10 -55 0 -69 28 -75 28 -87 -2z m76 -7 c33 -14 34 -16 24 -48 -13 -41 -15
-52 -23 -111 -4 -27 -19 -79 -33 -115 -20 -54 -24 -77 -19 -121 6 -49 0 -73
-60 -250 -82 -243 -86 -251 -124 -251 -36 0 -131 35 -161 59 l-23 18 49 139
c100 289 102 294 143 338 23 25 46 65 57 97 10 30 34 88 55 129 21 41 41 87
44 103 7 31 22 33 71 13z m151 -13 c3 -16 23 -62 44 -103 21 -41 45 -100 55
-130 11 -34 34 -72 59 -100 37 -39 50 -69 109 -240 37 -107 68 -206 69 -220 3
-21 -5 -29 -50 -52 -67 -34 -139 -46 -157 -27 -7 8 -45 108 -84 223 -66 192
-71 214 -65 265 5 44 1 67 -16 111 -19 47 -56 199 -63 255 -1 14 4 20 15 19
10 -1 16 2 13 6 -3 5 3 11 12 13 41 11 53 7 59 -20z"/>
<path d="M154 452 c-31 -73 -95 -277 -92 -296 3 -20 77 -56 144 -70 l31 -7 35
93 c39 102 78 223 78 243 0 12 -53 36 -137 61 l-43 13 -16 -37z m114 -115 c2
-9 -9 -22 -28 -32 -25 -13 -30 -20 -24 -38 12 -37 10 -61 -6 -64 -10 -2 -23
16 -39 52 -13 31 -22 57 -20 58 25 16 96 45 104 43 6 -1 11 -10 13 -19z"/>
<path d="M683 458 c-61 -22 -83 -35 -83 -48 0 -19 68 -221 96 -288 17 -37 22
-42 44 -37 49 11 142 50 147 62 10 27 -93 334 -114 340 -4 1 -45 -12 -90 -29z
m77 -123 l50 -25 -27 -55 c-29 -58 -30 -60 -51 -46 -12 7 -11 14 2 39 21 40
21 39 -16 58 -42 21 -40 18 -32 38 8 21 16 20 74 -9z"/>
</g>
</svg>
